<svg enable-background="new 0 0 512.001 512.001" viewBox="0 0 512.001 512.001" xmlns="http://www.w3.org/2000/svg"><path d="m35.651 476.349c36.867 36.866 69.872 67.63 267.56-122.085s216.538-314.185 192.624-338.1c-23.915-23.913-148.383-5.062-338.1 192.624-189.716 197.688-158.952 230.695-122.084 267.561z" fill="#ffce00"/><path d="m404.491 244.761c-.374-35.015-13.909-69.915-40.627-96.631-26.712-26.714-61.608-40.25-96.618-40.626-33.477 26.859-70.08 60.197-109.512 101.285-189.715 197.687-158.951 230.694-122.083 267.56 36.867 36.866 69.872 67.63 267.56-122.085 41.086-39.43 74.424-76.03 101.28-109.503z" fill="#7c6755"/><path d="m356.874 299.772c1.616-37.493-11.881-75.515-40.508-104.145-28.624-28.622-66.642-42.121-104.13-40.509-17.504 16.227-35.674 34.052-54.5 53.669-189.717 197.689-158.953 230.696-122.085 267.562 36.867 36.866 69.872 67.63 267.56-122.085 19.613-18.821 37.437-36.989 53.663-54.492z" fill="#61b4e4"/><path d="m137.972 374.027-47.149 47.149c10.68 10.678 15.416 25.227 14.405 39.985-.397 5.795 3.661 8.436 9.101 6.037 7.031-3.102 13.699-7.594 19.563-13.459 23.14-23.139 24.965-58.823 4.08-79.712z" opacity=".2"/><path d="m151.829 360.172-47.15 47.149c10.678 10.68 15.416 25.227 14.405 39.987-.397 5.793 3.66 8.436 9.101 6.034 7.031-3.097 13.699-7.595 19.563-13.459 23.139-23.138 24.966-58.827 4.081-79.711z" fill="#493728"/><g fill="#009bde"><circle cx="172.864" cy="277.426" r="9.796"/><path d="m301.369 290.792c3.826-3.824 3.825-10.029 0-13.855s-10.029-3.826-13.854 0c-3.826 3.826-3.826 10.031 0 13.853 3.825 3.829 10.028 3.829 13.854.002z"/><circle cx="248.741" cy="215.402" r="9.797"/><circle cx="213.822" cy="373.803" r="9.797"/><path d="m96.964 367.179c3.826-3.824 3.826-10.029 0-13.853-3.826-3.829-10.029-3.829-13.854 0-3.826 3.824-3.826 10.029 0 13.853 3.825 3.827 10.028 3.827 13.854 0z"/></g><path d="m501.503 10.495c-6.866-6.866-18.501-10.495-33.645-10.495-31.396 0-74.725 15.233-122.005 42.893-60.552 35.424-125.79 89.372-193.9 160.344-87.802 91.49-134.796 154.186-147.899 197.309-12.943 42.6 7.707 63.251 25.928 81.472 14.052 14.052 29.979 29.978 56.539 29.983h.012c21.707 0 47.422-10.357 80.925-32.595 36.941-24.52 83.162-63.561 141.302-119.358 70.588-67.741 124.347-132.657 159.786-192.948 27.691-47.11 43.121-90.423 43.445-121.958.164-15.641-3.464-27.622-10.488-34.647zm-46.777 148.48c-34.694 59.024-87.54 122.782-157.066 189.505-104.851 100.623-171.938 147.489-211.126 147.487h-.01c-19.922-.004-32.203-12.285-45.205-25.288-17.21-17.209-32.072-32.072-21.925-65.474 12.172-40.061 59.316-102.496 144.125-190.868 67.086-69.904 131.155-122.932 190.429-157.607 60.53-35.411 97.35-40.699 113.911-40.699 14.9 0 20.564 4.056 22.309 5.799 1.796 1.797 5.956 7.646 5.795 23.145-.173 16.669-5.758 53.644-41.237 114zm-308.566 195.528-47.15 47.15c-3.131 3.131-3.131 8.207 0 11.336 8.683 8.685 12.972 20.68 12.076 33.773-.308 4.493.993 8.541 3.662 11.399 2.458 2.633 5.89 4.082 9.664 4.083h.001c2.294 0 4.652-.528 7.003-1.567 8.154-3.593 15.556-8.682 21.999-15.125 12.597-12.596 20.015-28.919 20.887-45.96.888-17.35-5.08-33.364-16.806-45.089-3.13-3.129-8.206-3.129-11.336 0zm12.132 44.269c-.669 13.072-6.427 25.658-16.213 35.444-4.426 4.426-9.414 8.027-14.862 10.73.343-13.85-3.699-26.749-11.596-37.23l35.648-35.648c5.064 7.6 7.527 16.832 7.023 26.704z" fill="#1e252b"/></svg>